<svg aria-hidden="true" style="width:0;height:0;position:absolute;overflow:hidden" xmlns="http://www.w3.org/2000/svg"><defs><symbol id="icon-Frame-57" viewBox="0 0 32 32"><path fill="#0d7680" style="fill:var(--color1,#0d7680)" d="M31.968 16c0 8.827-7.166 16-15.984 16S0 24.827 0 16 7.166 0 15.984 0c.972 0 1.958.093 2.904.267a1.33 1.33 0 0 1-.479 2.614 13.3 13.3 0 0 0-2.424-.213c-7.339 0-13.32 5.987-13.32 13.333s5.981 13.333 13.32 13.333 13.32-5.987 13.32-13.333c0-.813-.08-1.627-.213-2.427a1.33 1.33 0 0 1 1.066-1.547 1.322 1.322 0 0 1 1.545 1.067c.173.947.266 1.933.266 2.907zM17.129 8.08c.733.107 1.399-.4 1.505-1.133s-.4-1.4-1.132-1.507a11.562 11.562 0 0 0-1.518-.107C10.11 5.333 5.328 10.12 5.328 16s4.782 10.667 10.656 10.667c5.874 0 10.656-4.787 10.656-10.667 0-.507-.04-1.013-.107-1.52-.107-.733-.773-1.24-1.505-1.133s-1.239.773-1.132 1.507c.053.373.08.76.08 1.147 0 4.413-3.583 8-7.992 8s-7.992-3.587-7.992-8 3.583-8 7.992-8c.386 0 .773.027 1.146.08zm-2.81 4.053a1.328 1.328 0 0 0-1.878-.107 5.34 5.34 0 0 0-1.772 3.973 5.329 5.329 0 0 0 5.328 5.333 5.356 5.356 0 0 0 3.969-1.773c.493-.547.44-1.387-.107-1.88s-1.385-.44-1.878.107a2.684 2.684 0 0 1-1.985.893 2.673 2.673 0 0 1-2.664-2.667c0-.76.32-1.48.892-1.987a1.332 1.332 0 0 0 .107-1.88l-.013-.013zm2.065 1.6a1.33 1.33 0 0 0 0 1.88c.266.267.599.387.946.387s.679-.133.946-.387l6.274-6.28H28c.36 0 .693-.147.946-.387l2.664-2.667c.386-.387.493-.96.293-1.453s-.693-.827-1.225-.827h-2.664V1.332c0-.533-.32-1.027-.826-1.227a1.312 1.312 0 0 0-1.452.293l-2.664 2.667a1.32 1.32 0 0 0-.386.947v3.453l-6.274 6.28-.027-.013z"/></symbol><symbol id="icon-Frame-58" viewBox="0 0 32 32"><path fill="#0d7680" style="fill:var(--color1,#0d7680)" d="M28-.525H4c-2.205 0-4 1.795-4 4v28h32v-28c0-2.205-1.795-4-4-4zm1.333 29.334H2.666V3.476c0-.735.597-1.333 1.333-1.333h24c.736 0 1.333.599 1.333 1.333v25.333zm-16-16c0 .504.361.931.859 1.013l4.055.676a3.682 3.682 0 0 1 3.087 3.644c0 2.205-1.795 4-4 4v2.667h-2.667v-2.667c-2.205 0-4-1.795-4-4h2.667c0 .736.597 1.333 1.333 1.333h2.667c.736 0 1.333-.597 1.333-1.333 0-.504-.361-.931-.859-1.013l-4.055-.676a3.682 3.682 0 0 1-3.087-3.644c0-2.205 1.795-4 4-4V6.142h2.667v2.667c2.205 0 4 1.795 4 4h-2.667c0-.735-.597-1.333-1.333-1.333h-2.667c-.736 0-1.333.599-1.333 1.333z"/></symbol><symbol id="icon-Frame-59" viewBox="0 0 32 32"><path fill="#0d7680" style="fill:var(--color1,#0d7680)" d="M6.667 26.673a3.334 3.334 0 1 1-6.666 0 3.334 3.334 0 1 1 6.666 0zm22-18.015C30.508 8.658 32 7.165 32 5.322a3.334 3.334 0 1 0-6.666 0 3.334 3.334 0 0 0 3.333 3.336zm-1.334 10.675v2.002H30v-2.002c0-3.311-2.692-6.005-6-6.005H6c-1.837 0-3.333-1.497-3.333-3.336S4.163 6.656 6 6.656h12.609l-2.185 2.187 1.885 1.887 3.681-3.684c.448-.448.696-1.046.696-1.68s-.248-1.233-.696-1.68L18.309 0l-1.885 1.887 2.099 2.1H6c-3.308 0-6 2.694-6 6.005s2.692 6.005 6 6.005h18a3.34 3.34 0 0 1 3.333 3.336zm1.334 4.107c-1.841 0-3.333 1.493-3.333 3.336a3.334 3.334 0 1 0 6.666 0 3.334 3.334 0 0 0-3.333-3.336zm-10.276-2.007-1.885 1.887 2.017 2.019H9.334v2.669h9.276l-2.104 2.106 1.885 1.887 3.613-3.616a2.365 2.365 0 0 0 0-3.335l-3.613-3.616z"/></symbol><symbol id="icon-Frame-60" viewBox="0 0 25 32"><path fill="none" stroke="#0d7680" style="stroke:var(--color1,#0d7680)" stroke-width="2.37" d="M21.259 5.333H3.629c-.573 0-1.037.696-1.037 1.556v15.556c0 .859.464 1.556 1.037 1.556h17.63c.573 0 1.037-.696 1.037-1.556V6.889c0-.859-.464-1.556-1.037-1.556z"/><path fill="none" stroke="#0d7680" style="stroke:var(--color1,#0d7680)" stroke-linejoin="round" stroke-linecap="round" stroke-width="2.37" d="M2.074 30.222h20.741M11.407 10h2.074"/></symbol><symbol id="icon-Frame-61" viewBox="0 0 33 32"><path fill="#0d7680" style="fill:var(--color1,#0d7680)" d="M29.167 20H14.25a4.215 4.215 0 0 1-2.944-1.173l-1.972-1.88c-.264-.253-.403-.587-.403-.947s.153-.693.403-.947l1.972-1.88A4.217 4.217 0 0 1 14.25 12h14.917c2.292 0 4.167 1.8 4.167 4s-1.875 4-4.167 4zm-16.875-4 .986.947c.264.253.611.387.986.387h14.917c.764 0 1.389-.6 1.389-1.333s-.625-1.333-1.389-1.333H14.25c-.361 0-.722.147-.986.387l-.986.947h.014zM25 8H14.25a4.215 4.215 0 0 1-2.944-1.173l-1.972-1.88C9.07 4.694 8.931 4.36 8.931 4s.153-.693.403-.947l1.972-1.88A4.217 4.217 0 0 1 14.25 0H25c2.292 0 4.167 1.8 4.167 4S27.292 8 25 8zM12.292 4l.986.947c.264.253.611.387.986.387h10.75c.764 0 1.389-.6 1.389-1.333s-.625-1.333-1.389-1.333h-10.75c-.361 0-.722.147-.986.387l-.986.947zm9.93 28H14.25a4.215 4.215 0 0 1-2.944-1.173l-1.972-1.88c-.264-.253-.403-.587-.403-.947s.153-.693.403-.947l1.972-1.88A4.217 4.217 0 0 1 14.25 24h7.972c2.292 0 4.167 1.8 4.167 4s-1.875 4-4.167 4zm-9.93-4 .986.947c.264.253.611.387.986.387h7.972c.764 0 1.389-.6 1.389-1.333s-.625-1.333-1.389-1.333h-7.972c-.361 0-.722.147-.986.387l-.986.947zm-9.514-2.667C1.25 25.333 0 26.533 0 28s1.25 2.667 2.778 2.667 2.778-1.2 2.778-2.667-1.25-2.667-2.778-2.667zm0-12C1.25 13.333 0 14.533 0 16s1.25 2.667 2.778 2.667 2.778-1.2 2.778-2.667-1.25-2.667-2.778-2.667zm0-12C1.25 1.333 0 2.533 0 4s1.25 2.667 2.778 2.667S5.556 5.467 5.556 4s-1.25-2.667-2.778-2.667z"/></symbol><symbol id="icon-Frame-63" viewBox="0 0 29 32"><path fill="#0d7680" style="fill:var(--color1,#0d7680)" d="M24.367 23.995h-.453a55.494 55.494 0 0 1-3.748-13.342H21.5c.38 0 .745-.141 1.014-.391s.42-.59.42-.943c0-.354-.151-.693-.42-.943s-.633-.391-1.014-.391h-.677s1.836-2.954 1.855-2.995c.248-.515.308-1.09.172-1.64s-.461-1.043-.925-1.405c-.464-.362-1.043-.574-1.648-.602s-1.203.128-1.705.445l-.97.486S16.427.826 16.385.781C15.837.281 15.1 0 14.332 0s-1.505.28-2.053.781c-.042.04-1.217 1.481-1.217 1.481l-.97-.48c-.501-.317-1.1-.473-1.705-.445s-1.184.24-1.648.602-.789.856-.925 1.405a2.429 2.429 0 0 0 .172 1.64c.019.048 1.855 3.002 1.855 3.002h-.677c-.38 0-.745.141-1.014.391s-.42.59-.42.943c0 .354.151.693.42.943s.633.391 1.014.391h1.334A55.586 55.586 0 0 1 4.75 23.996h-.453c-1.14 0-2.234.422-3.041 1.172s-1.259 1.769-1.259 2.83c0 1.062.453 2.08 1.259 2.83S3.156 32 4.297 32h20.067c1.14 0 2.234-.422 3.041-1.172s1.259-1.769 1.259-2.83-.453-2.08-1.259-2.83c-.806-.751-1.9-1.172-3.041-1.172zM10.787 5.158c.302.151.653.197.988.128s.633-.247.838-.503l1.72-2.117 1.72 2.117c.206.254.504.431.838.499s.684.022.985-.129l2.02-1.011-2.388 3.844h-6.35L8.757 4.142l2.03 1.017zm.592 5.495h5.908a54.254 54.254 0 0 0 3.565 13.342H7.809a54.241 54.241 0 0 0 3.57-13.342zm12.988 18.679H4.3c-.38 0-.745-.141-1.014-.391s-.42-.59-.42-.943c0-.354.151-.693.42-.943s.633-.391 1.014-.391h20.067c.38 0 .745.141 1.014.391s.42.59.42.943c0 .354-.151.693-.42.943s-.633.391-1.014.391z"/></symbol><symbol id="icon-Frame-64" viewBox="0 0 32 32"><path fill="#0d7680" style="fill:var(--color1,#0d7680)" d="M28.981 21.867a6.677 6.677 0 0 0-6.315-4.533h-5.333v-1.445a8 8 0 1 0-2.666 0v1.445H9.334a6.68 6.68 0 0 0-6.315 4.533 5.332 5.332 0 1 0 3.261-.445 3.989 3.989 0 0 1 3.052-1.421h5.333v1.503a5.335 5.335 0 0 0 1.333 10.498 5.33 5.33 0 0 0 5.291-4.662 5.34 5.34 0 0 0-3.958-5.836v-1.503h5.333a3.99 3.99 0 0 1 3.052 1.417 5.336 5.336 0 0 0-4.387 5.362 5.334 5.334 0 1 0 7.648-4.917v.004zM10.667 8a5.333 5.333 0 1 1 10.662-.002 5.333 5.333 0 0 1-10.66.003zM8 26.667a2.67 2.67 0 0 1-1.646 2.464 2.665 2.665 0 0 1-3.484-3.484 2.667 2.667 0 0 1 5.131 1.021zm10.667 0a2.67 2.67 0 0 1-1.646 2.464 2.665 2.665 0 0 1-2.502-4.681 2.665 2.665 0 0 1 3.368.332c.5.5.781 1.178.781 1.886zm8 2.666a2.67 2.67 0 0 1-2.464-1.646 2.665 2.665 0 0 1 3.484-3.484 2.667 2.667 0 0 1-1.021 5.131z"/></symbol><symbol id="icon-chart" viewBox="0 0 31 32"><path fill="#0d7680" style="fill:var(--color1,#0d7680)" d="M29.953 29.333H6.511c-1.036 0-2.03-.421-2.763-1.172s-1.144-1.768-1.144-2.828v-24c0-.354-.137-.693-.381-.943s-.575-.391-.921-.391c-.345 0-.677.14-.921.391S0 .979 0 1.333v24c.002 1.767.689 3.462 1.909 4.712S4.785 31.998 6.511 32h23.442c.345 0 .677-.14.921-.391s.381-.589.381-.943-.137-.693-.381-.943-.575-.39-.921-.39z"/><path fill="#0d7680" style="fill:var(--color1,#0d7680)" d="M7.814 26.667c.345 0 .677-.14.921-.391s.381-.589.381-.943V16c0-.354-.137-.693-.381-.943s-.575-.391-.921-.391c-.345 0-.677.14-.921.391s-.381.589-.381.943v9.333c0 .354.137.693.381.943s.575.391.921.391zM13.023 13.333v12c0 .354.137.693.381.943a1.286 1.286 0 0 0 1.842 0 1.35 1.35 0 0 0 .381-.943v-12c0-.354-.137-.693-.381-.943s-.575-.391-.921-.391c-.345 0-.677.14-.921.391s-.381.589-.381.943zM19.535 17.333v8c0 .354.137.693.381.943a1.286 1.286 0 0 0 1.842 0 1.35 1.35 0 0 0 .381-.943v-8c0-.354-.137-.693-.381-.943s-.575-.391-.921-.391-.677.141-.921.391a1.35 1.35 0 0 0-.381.943zM26.047 12v13.333c0 .354.137.693.381.943s.575.391.921.391.677-.14.921-.391a1.35 1.35 0 0 0 .381-.943V12c0-.354-.137-.693-.381-.943s-.575-.391-.921-.391-.677.14-.921.391a1.35 1.35 0 0 0-.381.943zM7.814 12c.345 0 .677-.141.921-.391l4.67-4.781c.248-.242.578-.377.921-.377s.673.135.921.377l2.829 2.896c.733.75 1.726 1.171 2.762 1.171s2.03-.421 2.762-1.171l7.275-7.448c.237-.251.368-.588.365-.938s-.14-.684-.381-.931-.568-.387-.91-.39-.67.131-.916.374l-7.275 7.447a1.286 1.286 0 0 1-1.842 0l-2.829-2.895c-.733-.75-1.726-1.171-2.762-1.171s-2.03.421-2.762 1.171l-4.67 4.781c-.182.187-.306.424-.356.683s-.024.527.074.77c.099.244.265.452.48.598s.466.225.723.225z"/></symbol><symbol id="icon-circle" viewBox="0 0 29 32"><path fill="#0d7680" style="fill:var(--color1,#0d7680)" d="M0 16c0-4.243 1.551-8.313 4.311-11.314S10.816 0 14.72 0c3.904 0 7.648 1.686 10.409 4.686S29.44 11.756 29.44 16s-1.551 8.313-4.311 11.314C22.369 30.315 18.624 32 14.72 32s-7.648-1.686-10.409-4.686C1.55 24.313 0 20.244 0 16zm13.88 6.848 8.475-11.516-1.531-1.331-7.227 9.815-5.119-4.636-1.256 1.638 6.657 6.029z"/></symbol><symbol id="icon-arrow-right" viewBox="0 0 28 32"><path d="m24.401 17.015-7.826 8.609c-.245.27-.577.421-.924.421s-.679-.151-.924-.421-.383-.635-.383-1.016.138-.747.383-1.016l5.599-6.156H4.348c-.346 0-.678-.151-.922-.42s-.382-.634-.382-1.015c0-.381.137-.745.382-1.015s.576-.42.922-.42h15.978l-5.597-6.16c-.245-.27-.383-.635-.383-1.016s.138-.747.383-1.016c.245-.27.577-.421.924-.421s.679.151.924.421l7.826 8.609c.122.133.218.292.284.467a1.562 1.562 0 0 1-.001 1.102 1.44 1.44 0 0 1-.285.466z"/></symbol><symbol id="icon-Logo" viewBox="0 0 31 32"><path fill="#fff" style="fill:var(--color1,#fff)" d="M24.359 24.908H7.372V.447l.834-.076c.038 0 .228-.038.569-.038 1.517 0 5.384.341 8.911 3.451 2.01 1.745 3.602 4.134 4.702 7.054 1.327 3.489 2.01 7.775 2.01 12.781v1.289h-.038zm-15.166-1.82h13.385c-.076-8.457-2.123-14.487-6.067-17.938a11.97 11.97 0 0 0-7.318-2.996v20.934zM31.297 28.808c-.754-.731-1.507-1.197-2.333-1.197-.754 0-1.507.399-2.225 1.064s-1.472.997-2.225.997-1.472-.332-2.154-.931c-.754-.731-1.507-1.197-2.333-1.197-.754 0-1.507.399-2.225 1.064s-1.472.997-2.225.997-1.472-.332-2.154-.931c-.754-.731-1.507-1.197-2.333-1.197-.754 0-1.507.399-2.225 1.064s-1.472.997-2.225.997c-.754 0-1.472-.332-2.154-.931-.754-.731-1.507-1.197-2.333-1.197-.754 0-1.507.399-2.225 1.064v2.061c.718-.731 1.436-1.13 2.225-1.13.682 0 1.364.332 2.01.931.036.066.108.066.144.133.682.598 1.364.931 2.082.997h.251c.754 0 1.507-.332 2.225-.997.718-.731 1.436-1.13 2.225-1.13.682 0 1.364.332 2.01.931.036.066.108.066.144.133.682.598 1.364.931 2.082.997h.251c.754 0 1.113 0 2.225-.997.718-.731 1.436-1.13 2.225-1.13.682 0 1.364.332 2.01.931.036.067.108.067.144.133.682.598 1.364.931 2.082.997h.251c.754 0 1.507-.332 2.225-.997.718-.731 1.436-1.13 2.225-1.13.682 0 1.364.332 2.01.931.036.066.108.066.144.133l.215.199v-1.994c0 .332 0 .332-.036.332z"/></symbol><symbol id="icon-left" viewBox="0 0 18 32"><path fill="none" stroke="#0d7680" style="stroke:var(--color1,#0d7680)" stroke-linejoin="round" stroke-linecap="round" stroke-width="3" d="M15.8 2.7 2.5 16l13.3 13.3"/></symbol><symbol id="icon-right" viewBox="0 0 18 32"><path fill="none" stroke="#0d7680" style="stroke:var(--color1,#0d7680)" stroke-linejoin="round" stroke-linecap="round" stroke-width="3" d="M2.2 2.7 15.5 16 2.2 29.3"/></symbol><symbol id="icon-linkedin" viewBox="0 0 32 32"><path d="M16 .64C7.517.64.64 7.517.64 16S7.517 31.36 16 31.36 31.36 24.483 31.36 16 24.483.64 16 .64zm-3.76 21.726H9.13v-10.01h3.11v10.01zm-1.574-11.238c-.982 0-1.618-.696-1.618-1.557 0-.878.654-1.554 1.658-1.554s1.618.675 1.637 1.554c0 .861-.634 1.557-1.677 1.557zM23.6 22.366h-3.11v-5.547c0-1.291-.451-2.168-1.576-2.168-.859 0-1.37.594-1.595 1.165-.083.203-.104.491-.104.778v5.771h-3.112v-6.816c0-1.25-.04-2.294-.082-3.194h2.702l.142 1.39h.062c.41-.653 1.413-1.616 3.091-1.616 2.046 0 3.581 1.371 3.581 4.318v5.918z"/></symbol><symbol id="icon-twiter" viewBox="0 0 32 32"><path d="M16 .64C7.517.64.64 7.517.64 16S7.517 31.36 16 31.36 31.36 24.483 31.36 16 24.483.64 16 .64zm6.248 12.582c.006.131.008.262.008.39 0 4-3.042 8.61-8.606 8.61a8.54 8.54 0 0 1-4.637-1.36c.235.029.477.04.722.04a6.063 6.063 0 0 0 3.757-1.294 3.027 3.027 0 0 1-2.826-2.1c.453.086.92.068 1.365-.053a3.024 3.024 0 0 1-2.427-2.966v-.037c.408.226.875.363 1.371.379a3.023 3.023 0 0 1-.936-4.042 8.612 8.612 0 0 0 6.235 3.164 3.026 3.026 0 0 1 5.155-2.76 6.081 6.081 0 0 0 1.92-.734 3.04 3.04 0 0 1-1.33 1.675 6.075 6.075 0 0 0 1.738-.478 6.14 6.14 0 0 1-1.509 1.566z"/></symbol><symbol id="icon-Address" viewBox="0 0 22 32"><path fill="#b2d9da" style="fill:var(--color1,#b2d9da)" d="M11.2 15.2a4.003 4.003 0 0 1-4-4 4.003 4.003 0 0 1 4-4 4.003 4.003 0 0 1 2.829 6.829A3.996 3.996 0 0 1 11.2 15.2zm0-15.2A11.196 11.196 0 0 0 0 11.2C0 19.6 11.2 32 11.2 32s11.2-12.4 11.2-20.8A11.196 11.196 0 0 0 11.2 0z"/></symbol><symbol id="icon-mail" viewBox="0 0 34 32"><path fill="#b2d9da" style="fill:var(--color1,#b2d9da)" d="M30.6 1H3.4C1.53 1 .017 2.688.017 4.75L0 27.25C0 29.312 1.53 31 3.4 31h27.2c1.87 0 3.4-1.688 3.4-3.75V4.75C34 2.687 32.47 1 30.6 1zm0 7.5L17 17.875 3.4 8.5V4.75L17 14.125 30.6 4.75V8.5z"/></symbol></defs></svg>