<svg aria-hidden="true" style="width:0;height:0;position:absolute;overflow:hidden" xmlns="http://www.w3.org/2000/svg"><defs><symbol id="icon-logo" viewBox="0 0 32 32"><path d="M24.878 25.098H7.53V.116l.852-.077c.039 0 .232-.039.581-.039 1.549 0 5.499.349 9.1 3.525 2.052 1.782 3.679 4.222 4.802 7.204 1.355 3.563 2.052 7.94 2.052 13.053v1.317h-.039zm-15.49-1.859h13.669c-.077-8.637-2.169-14.795-6.196-18.32a12.226 12.226 0 0 0-7.474-3.06v21.38zM31.963 29.081c-.77-.747-1.54-1.222-2.383-1.222-.77 0-1.54.407-2.273 1.086s-1.503 1.018-2.273 1.018-1.503-.339-2.199-.951c-.77-.747-1.54-1.222-2.383-1.222-.77 0-1.54.407-2.273 1.086s-1.503 1.018-2.273 1.018-1.503-.339-2.199-.95c-.77-.747-1.54-1.222-2.383-1.222-.77 0-1.54.407-2.273 1.086s-1.503 1.018-2.273 1.018-1.503-.339-2.199-.95c-.77-.747-1.54-1.222-2.383-1.222-.77 0-1.54.407-2.273 1.086v2.105c.733-.747 1.466-1.154 2.273-1.154.696 0 1.393.339 2.053.95.037.068.11.068.147.136.696.611 1.393.95 2.126 1.018h.257c.77 0 1.54-.339 2.273-1.018.733-.747 1.466-1.154 2.273-1.154.696 0 1.393.339 2.053.95.037.068.11.068.147.136.696.611 1.393.95 2.126 1.018h.257c.77 0 1.136 0 2.273-1.018.733-.747 1.466-1.154 2.273-1.154.696 0 1.393.339 2.053.95.037.068.11.068.147.136.696.611 1.393.951 2.126 1.018h.257c.77 0 1.54-.339 2.273-1.018.733-.747 1.466-1.154 2.273-1.154.696 0 1.393.339 2.053.95.037.068.11.068.147.136l.22.204V28.74c0 .339 0 .339-.037.339z"/></symbol></defs><symbol id="icon-circle" viewBox="0 0 29 32"><path fill="#0d7680" style="fill:var(--color1,#0d7680)" d="M0 16c0-4.243 1.551-8.313 4.311-11.314S10.816 0 14.72 0c3.904 0 7.648 1.686 10.409 4.686S29.44 11.756 29.44 16s-1.551 8.313-4.311 11.314C22.369 30.315 18.624 32 14.72 32s-7.648-1.686-10.409-4.686C1.55 24.313 0 20.244 0 16zm13.88 6.848 8.475-11.516-1.531-1.331-7.227 9.815-5.119-4.636-1.256 1.638 6.657 6.029z"/></symbol></svg>