<svg aria-hidden="true" style="position: absolute; width: 0; height: 0; overflow: hidden;" version="1.1" xmlns="http://www.w3.org/2000/svg" xmlns:xlink="http://www.w3.org/1999/xlink">
<defs>
<symbol id="icon-logo" viewBox="0 0 32 32">
<path  d="M24.878 25.098h-17.348v-24.982l0.852-0.077c0.039 0 0.232-0.039 0.581-0.039 1.549 0 5.499 0.349 9.1 3.525 2.052 1.782 3.679 4.222 4.802 7.204 1.355 3.563 2.052 7.94 2.052 13.053v1.317h-0.039zM9.388 23.239h13.669c-0.077-8.637-2.169-14.795-6.196-18.32-2.866-2.518-5.925-2.982-7.474-3.060v21.38z"></path>
<path  d="M31.963 29.081c-0.77-0.747-1.54-1.222-2.383-1.222-0.77 0-1.54 0.407-2.273 1.086s-1.503 1.018-2.273 1.018-1.503-0.339-2.199-0.951c-0.77-0.747-1.54-1.222-2.383-1.222-0.77 0-1.54 0.407-2.273 1.086s-1.503 1.018-2.273 1.018-1.503-0.339-2.199-0.95c-0.77-0.747-1.54-1.222-2.383-1.222-0.77 0-1.54 0.407-2.273 1.086s-1.503 1.018-2.273 1.018-1.503-0.339-2.199-0.95c-0.77-0.747-1.54-1.222-2.383-1.222-0.77 0-1.54 0.407-2.273 1.086v2.105c0.733-0.747 1.466-1.154 2.273-1.154 0.696 0 1.393 0.339 2.053 0.95 0.037 0.068 0.11 0.068 0.147 0.136 0.696 0.611 1.393 0.95 2.126 1.018h0.257c0.77 0 1.54-0.339 2.273-1.018 0.733-0.747 1.466-1.154 2.273-1.154 0.696 0 1.393 0.339 2.053 0.95 0.037 0.068 0.11 0.068 0.147 0.136 0.696 0.611 1.393 0.95 2.126 1.018h0.257c0.77 0 1.136 0 2.273-1.018 0.733-0.747 1.466-1.154 2.273-1.154 0.696 0 1.393 0.339 2.053 0.95 0.037 0.068 0.11 0.068 0.147 0.136 0.696 0.611 1.393 0.951 2.126 1.018h0.257c0.77 0 1.54-0.339 2.273-1.018 0.733-0.747 1.466-1.154 2.273-1.154 0.696 0 1.393 0.339 2.053 0.95 0.037 0.068 0.11 0.068 0.147 0.136l0.22 0.204v-2.037c0 0.339 0 0.339-0.037 0.339z"></path>
</symbol>
</defs>

<symbol id="icon-circle" viewBox="0 0 29 32">
<path fill="#0d7680" style="fill: var(--color1, #0d7680)" d="M0 16c0-4.243 1.551-8.313 4.311-11.314s6.505-4.686 10.409-4.686c3.904 0 7.648 1.686 10.409 4.686s4.311 7.070 4.311 11.314-1.551 8.313-4.311 11.314c-2.76 3.001-6.505 4.686-10.409 4.686s-7.648-1.686-10.409-4.686c-2.761-3.001-4.311-7.070-4.311-11.314zM13.88 22.848l8.475-11.516-1.531-1.331-7.227 9.815-5.119-4.636-1.256 1.638 6.657 6.029z"></path>
</symbol>

</svg>
